<?xml version="1.0" encoding="UTF-8" standalone="no"?>
<svg
   version="1.1"
   id="Warstwa_1"
   x="0px"
   y="0px"
   width="270"
   height="55"
   viewBox="0 0 269.99999 55"
   enable-background="new 0 0 279.712 46.382"
   xml:space="preserve"
   xmlns:xlink="http://www.w3.org/1999/xlink"
   xmlns="http://www.w3.org/2000/svg"
   xmlns:svg="http://www.w3.org/2000/svg"><defs
   id="defs8">&#10;	<defs
   id="defs1">&#10;		<rect
   id="SVGID_1_"
   width="279.71201"
   height="46.382"
   x="0"
   y="0" />&#10;	</defs>&#10;	<clipPath
   id="SVGID_2_">&#10;		<use
   xlink:href="#SVGID_1_"
   overflow="visible"
   id="use1" />&#10;	</clipPath>&#10;	&#10;	&#10;	&#10;	&#10;	&#10;	&#10;	&#10;	&#10;	&#10;	&#10;<clipPath
   id="SVGID_2_-4">&#10;		<use
   xlink:href="#SVGID_1_"
   overflow="visible"
   id="use1-4" />&#10;	</clipPath></defs>&#10;<polygon
   fill="#17262c"
   points="106.042,24.489 102.081,14.026 95.825,14.026 91.863,24.489 88.93,14.026 79.297,14.026 86.875,38.814 95.139,38.814 98.953,27.179 102.716,38.814 110.979,38.814 118.558,14.026 108.976,14.026 "
   id="polygon1"
   transform="translate(-4.2380607,5.8216945)" />&#10;<path
   clip-path="url(#SVGID_2_)"
   fill="#17262c"
   d="m 144.587,27.179 c 0,-9 -5.426,-13.879 -13.038,-13.879 -7.445,0 -13.607,5.278 -13.607,13.144 0,7.822 6.162,13.101 13.648,13.101 5.972,0 10.662,-2.586 12.66,-7.907 l -8.706,-1.724 c -0.715,1.514 -2.292,2.25 -3.954,2.25 -2.145,0 -3.512,-1.325 -4.059,-3.365 h 17.056 z m -17.013,-3.512 c 0.651,-1.766 2.061,-2.839 3.975,-2.839 1.597,0 3.07,0.967 3.659,2.839 z"
   id="path1"
   transform="translate(-4.2380607,5.8216945)" /><path
   id="path8"
   style="fill:#e74310;fill-opacity:1;stroke:none;stroke-width:5.58985"
   d="M 27.675781 6.0425544e-22 C 12.389982 -0.00022964782 -0.00073926746 12.266811 0 27.398438 C 0.00055566958 42.529157 12.390898 54.795152 27.675781 54.794922 C 42.959743 54.79386 55.351007 42.528244 55.351562 27.398438 C 55.352301 12.267725 42.960658 0.0010622289 27.675781 6.0425544e-22 z M 22.894531 9.4570313 L 42.015625 27.396484 L 22.894531 45.335938 L 13.335938 36.367188 L 22.894531 27.396484 L 13.335938 18.425781 L 22.894531 9.4570313 z " /><path
   id="path8-6"
   style="fill:#17262c;fill-opacity:1;stroke:none;stroke-width:5.58281"
   d="m 242.91646,16.686325 -8.96852,9.559957 17.93928,19.119912 17.93929,-19.119912 -8.96852,-9.559957 -8.97077,9.559957 z" /><path
   clip-path="url(#SVGID_2_)"
   fill="#17262c"
   d="m 163.88,13.3 c -2.922,0 -5.277,1.03 -6.98,2.776 V 3.606 h -9.842 v 35.202 h 9.842 v -2.039 c 1.703,1.745 4.059,2.776 6.98,2.776 6.94,0 11.987,-5.279 11.987,-13.103 0,-7.864 -5.047,-13.142 -11.987,-13.142 m -2.397,18.085 c -2.691,0 -4.584,-2.208 -4.584,-4.942 0,-2.732 1.893,-4.983 4.584,-4.983 2.732,0 4.5,2.251 4.5,4.983 0,2.734 -1.767,4.942 -4.5,4.942"
   id="path4"
   transform="translate(-4.2380607,5.8216945)" /><path
   clip-path="url(#SVGID_2_)"
   fill="#17262c"
   d="m 209.586,3.606 v 12.428 c -1.724,-1.767 -4.058,-2.734 -7.002,-2.734 -6.939,0 -11.924,5.278 -11.924,13.143 0,7.823 4.984,13.103 11.924,13.103 2.944,0 5.278,-0.968 7.002,-2.734 v 1.997 h 9.821 V 3.606 Z m -4.605,27.779 c -2.734,0 -4.5,-2.208 -4.5,-4.942 0,-2.732 1.766,-4.983 4.5,-4.983 2.69,0 4.604,2.251 4.604,4.983 0.001,2.734 -1.913,4.942 -4.604,4.942"
   id="path6"
   transform="translate(-16.560061,5.8211945)" /><path
   clip-path="url(#SVGID_2_)"
   fill="#17262c"
   d="m 248.508,27.179 c 0,-9 -5.425,-13.879 -13.038,-13.879 -7.443,0 -13.605,5.278 -13.605,13.144 0,7.822 6.162,13.101 13.648,13.101 5.972,0 10.661,-2.586 12.659,-7.907 l -8.706,-1.724 c -0.737,1.514 -2.292,2.25 -3.953,2.25 -2.146,0 -3.534,-1.325 -4.059,-3.365 h 17.054 z m -17.012,-3.512 c 0.631,-1.766 2.061,-2.839 3.974,-2.839 1.599,0 3.071,0.967 3.659,2.839 z"
   id="path7"
   transform="translate(-16.560061,5.8211945)" />&#10;</svg>
